<svg xmlns="http://www.w3.org/2000/svg" width="24" height="24" viewBox="0 0 24 24">
  <path fill="#F2F4F3" d="M23.5605229,10.9348178 C24.1464924,11.520808 24.1464924,12.4707922 23.5605229,13.0557824 C22.9755534,13.6417726 22.0256028,13.6417726 21.4396334,13.0557824 L12.000125,3.62093965 L2.56061663,13.0557824 C1.97464715,13.6417726 1.02469663,13.6417726 0.43872715,13.0557824 C-0.146242383,12.4707922 -0.146242383,11.520808 0.43872715,10.9348178 L10.9381803,0.439992667 C11.231165,0.145997567 11.616145,0 12.000125,0 C12.384105,0 12.7690849,0.145997567 13.0610697,0.439992667 L23.5605229,10.9348178 Z M4.00154159,19.00005 L4.00154159,14.4471592 L12.0011249,6.44729255 L20.0007083,14.4471592 L20.0007083,19.00005 L4.00154159,19.00005 Z M4,21 L20,21 C20,22.6568542 18.6568542,24 17,24 L7,24 C5.34314575,24 4,22.6568542 4,21 Z M11.999375,12.4997917 C10.8948631,12.4997917 9.99947919,13.3951755 9.99947919,14.4996875 L9.99947919,14.4998292 C9.99947919,15.6043411 10.8948631,16.499725 11.999375,16.499725 C13.103887,16.499725 13.9992709,15.6043411 13.9992709,14.4998292 L13.9992709,14.4996875 C13.9992709,13.3951755 13.103887,12.4997917 11.999375,12.4997917 Z"/>
</svg>
