<svg xmlns="http://www.w3.org/2000/svg" width="24" height="24" viewBox="0 0 24 24">
  <path fill="#F2F4F3" d="M6,0 C7.1045695,0 8,0.8954305 8,2 L4,2 C4,0.8954305 4.8954305,0 6,0 Z M0,9 L24,9 L24,16 L16,16 L16,24 L3,24 C1.34314575,24 0,22.6568542 0,21 L0,9 Z M4.5,12 C3.67157288,12 3,12.6715729 3,13.5 C3,14.3284271 3.67157288,15 4.5,15 C5.32842712,15 6,14.3284271 6,13.5 C6,12.6715729 5.32842712,12 4.5,12 Z M4.5,18 C3.67157288,18 3,18.6715729 3,19.5 C3,20.3284271 3.67157288,21 4.5,21 C5.32842712,21 6,20.3284271 6,19.5 C6,18.6715729 5.32842712,18 4.5,18 Z M11,12 C10.1715729,12 9.5,12.6715729 9.5,13.5 C9.5,14.3284271 10.1715729,15 11,15 C11.8284271,15 12.5,14.3284271 12.5,13.5 C12.5,12.6715729 11.8284271,12 11,12 Z M11,18 C10.1715729,18 9.5,18.6715729 9.5,19.5 C9.5,20.3284271 10.1715729,21 11,21 C11.8284271,21 12.5,20.3284271 12.5,19.5 C12.5,18.6715729 11.8284271,18 11,18 Z M18,0 C19.1045695,0 20,0.8954305 20,2 L16,2 C16,0.8954305 16.8954305,0 18,0 Z M24,7 L0,7 C0,5.34314575 1.34314575,4 3,4 L21,4 C22.6568542,4 24,5.34314575 24,7 Z M24,18 L18,24 L18,18 L24,18 Z"/>
</svg>
