<svg xmlns="http://www.w3.org/2000/svg" width="24" height="24" viewBox="0 0 24 24">
  <path fill="#F2F4F3" d="M6,0 C7.1045695,0 8,0.8954305 8,2 L4,2 C4,0.8954305 4.8954305,0 6,0 Z M3,4 L21,4 C22.6568542,4 24,5.34314575 24,7 L24,19 L0,19 L0,7 C0,5.34314575 1.34314575,4 3,4 Z M12,16 C14.209139,16 16,14.209139 16,12 C16,9.790861 14.209139,8 12,8 C9.790861,8 8,9.790861 8,12 C8,14.209139 9.790861,16 12,16 Z M19,7 C18.4477153,7 18,7.44771525 18,8 C18,8.55228475 18.4477153,9 19,9 L20,9 C20.5522847,9 21,8.55228475 21,8 C21,7.44771525 20.5522847,7 20,7 L19,7 Z M0,21 L24,21 C24,22.6568542 22.6568542,24 21,24 L3,24 C1.34314575,24 0,22.6568542 0,21 Z"/>
</svg>
