<svg xmlns="http://www.w3.org/2000/svg" width="24" height="24" viewBox="0 0 24 24">
  <path fill="#F2F4F3" d="M23.5605229,10.9348178 C24.1464924,11.520808 24.1464924,12.4707922 23.5605229,13.0557824 C22.9755534,13.6417726 22.0256028,13.6417726 21.4396334,13.0557824 L12.000125,3.62093965 L2.56061663,13.0557824 C1.97464715,13.6417726 1.02469663,13.6417726 0.43872715,13.0557824 C-0.146242383,12.4707922 -0.146242383,11.520808 0.43872715,10.9348178 L10.9381803,0.439992667 C11.231165,0.145997567 11.616145,0 12.000125,0 C12.384105,0 12.7690849,0.145997567 13.0610697,0.439992667 L23.5605229,10.9348178 Z M15.0009687,24 L15.0009687,19.0000833 C15.0009687,17.3431109 13.6580386,16.0001333 12.0011249,16.0001333 C10.3442112,16.0001333 9.00128118,17.3431109 9.00128118,19.0000833 L9.00128118,24 L7.00138534,24 C5.34447164,24 4.00154159,22.6570224 4.00154159,21.00005 L4.00154159,14.4471592 L12.0011249,6.44729255 L20.0007083,14.4471592 L20.0007083,21.00005 C20.0007083,22.6570224 18.6577782,24 17.0008645,24 L15.0009687,24 Z M20.0007083,4.55352411 L17.0008645,1.55157414 C17.0008645,0.722587957 17.6718296,0.05159914 18.5007864,0.05159914 C19.3297432,0.05159914 20.0007083,0.722587957 20.0007083,1.55157414 L20.0007083,4.55352411 Z"/>
</svg>
