<svg xmlns="http://www.w3.org/2000/svg" width="24" height="20" viewBox="0 0 24 20">
  <path fill="#F2F4F3" d="M3,2 L21,2 C22.6568542,2 24,3.34314575 24,5 L24,19 C24,20.6568542 22.6568542,22 21,22 L3,22 C1.34314575,22 0,20.6568542 0,19 L0,5 C0,3.34314575 1.34314575,2 3,2 Z M6,10 C7.1045695,10 8,9.1045695 8,8 C8,6.8954305 7.1045695,6 6,6 C4.8954305,6 4,6.8954305 4,8 C4,9.1045695 4.8954305,10 6,10 Z M4.35001594,16.363617 C4.20222228,16.5427609 4.12138922,16.7677599 4.12138922,17 C4.12138922,17.5522847 4.56910447,18 5.12138922,18 L19.3455643,18 C19.5075026,18 19.6670184,17.9606723 19.8103982,17.8853979 C20.29939,17.6286772 20.4876829,17.0241579 20.2309622,16.5351661 L15.646271,7.80242095 C15.5434535,7.60657806 15.3786056,7.45035069 15.1775278,7.35819002 C14.6754652,7.12807798 14.0819203,7.3485375 13.8518083,7.85060014 L10.8648978,14.3674957 C10.801961,14.5048123 10.7087339,14.6260869 10.592216,14.7222142 C10.1661983,15.0736788 9.53592432,15.0132416 9.18445972,14.5872239 L8.27137328,13.4804525 C8.23078435,13.4312538 8.18558165,13.3860511 8.13638295,13.3454621 C7.71036526,12.9939975 7.08009132,13.0544348 6.72862672,13.4804525 L4.35001594,16.363617 Z" transform="translate(0 -2)"/>
</svg>
