<svg xmlns="http://www.w3.org/2000/svg" width="25" height="25" viewBox="0 0 25 25">
  <path fill="#F2F4F3" d="M19,9.5 C19,14.747 14.747,19 9.5,19 C4.253,19 0,14.747 0,9.5 C0,4.253 4.253,0 9.5,0 C14.747,0 19,4.253 19,9.5 Z M9.5,15 C12.5375661,15 15,12.5375661 15,9.5 C15,6.46243388 12.5375661,4 9.5,4 C6.46243388,4 4,6.46243388 4,9.5 C4,12.5375661 6.46243388,15 9.5,15 Z M23.5,23.5 C22.719,24.281 21.452,24.281 20.672,23.5 L16.429,19.258 L19.258,16.429 L23.5,20.672 C24.281,21.452 24.281,22.719 23.5,23.5 Z"/>
</svg>
