<svg xmlns="http://www.w3.org/2000/svg" width="24" height="24" viewBox="0 0 24 24">
  <path fill="#F2F4F3" d="M7,0 L7,24 C5.34314575,24 4,22.6568542 4,21 L4,3 C4,1.34314575 5.34314575,0 7,0 Z M9,0 L21,0 C22.6568542,0 24,1.34314575 24,3 L24,21 C24,22.6568542 22.6568542,24 21,24 L9,24 L9,0 Z M18.9995052,6 L13.9995052,6 C13.4473033,6 13,6.447 13,7 C13,7.553 13.4473033,8 13.9995052,8 L18.9995052,8 C19.5517071,8 20,7.553 20,7 C20,6.447 19.5517071,6 18.9995052,6 Z M2,2 L2,6 C0.8954305,6 0,5.1045695 0,4 C0,2.8954305 0.8954305,2 2,2 Z M2,18 L2,22 C0.8954305,22 0,21.1045695 0,20 C0,18.8954305 0.8954305,18 2,18 Z M2,10 L2,14 C0.8954305,14 0,13.1045695 0,12 C0,10.8954305 0.8954305,10 2,10 Z"/>
</svg>
