<svg xmlns="http://www.w3.org/2000/svg" width="24" height="24" viewBox="0 0 24 24">
  <path fill="#F2F4F3" d="M8.17070571,18 C8.58254212,19.1651924 9.69378117,20 11,20 L13,20 C14.3062188,20 15.4174579,19.1651924 15.8292943,18 L22,18 L22,21 C22,22.6568542 20.6568542,24 19,24 L5,24 C3.34314575,24 2,22.6568542 2,21 L2,18 L8.17070571,18 L8.17070571,18 Z M16,16 C16,14.3431458 14.6568542,13 13,13 L11,13 C9.34314575,13 8,14.3431458 8,16 L0,16 L0,8 C0,6.34314575 1.34314575,5 3,5 L21,5 C22.6568542,5 24,6.34314575 24,8 L24,16 L16,16 Z M11.5,15 L12.5,15 C13.3284271,15 14,15.6715729 14,16.5 C14,17.3284271 13.3284271,18 12.5,18 L11.5,18 C10.6715729,18 10,17.3284271 10,16.5 C10,15.6715729 10.6715729,15 11.5,15 Z M14,3 C14,2.44771525 13.5522847,2 13,2 L11,2 C10.4477153,2 10,2.44771525 10,3 L8,3 C8,1.34314575 9.34314575,0 11,0 L13,0 C14.6568542,0 16,1.34314575 16,3 L14,3 Z"/>
</svg>
