<svg xmlns="http://www.w3.org/2000/svg" width="24" height="24" viewBox="0 0 24 24">
  <path fill="#F2F4F3" d="M7,21 L7,22 C7,23.1045695 6.1045695,24 5,24 C3.8954305,24 3,23.1045695 3,22 L3,21 L7,21 Z M3,9 L21,9 C22.6568542,9 24,10.3431458 24,12 L24,16 C24,17.6568542 22.6568542,19 21,19 L3,19 C1.34314575,19 0,17.6568542 0,16 L0,12 C0,10.3431458 1.34314575,9 3,9 Z M5,16 C6.1045695,16 7,15.1045695 7,14 C7,12.8954305 6.1045695,12 5,12 C3.8954305,12 3,12.8954305 3,14 C3,15.1045695 3.8954305,16 5,16 Z M19,16 C20.1045695,16 21,15.1045695 21,14 C21,12.8954305 20.1045695,12 19,12 C17.8954305,12 17,12.8954305 17,14 C17,15.1045695 17.8954305,16 19,16 Z M21,21 L21,22 C21,23.1045695 20.1045695,24 19,24 C17.8954305,24 17,23.1045695 17,22 L17,21 L21,21 Z M16,7 L12,7 C12,5.8954305 12.8954305,5 14,5 C15.1045695,5 16,5.8954305 16,7 Z M17.75,7 L16.1054424,3.56787982 C15.9391483,3.22083116 15.5884595,3 15.2036264,3 L8.79637362,3 C8.41154051,3 8.06085174,3.22083116 7.89455759,3.56787982 L6.25,7 L3,7 L5.22075338,1.8182421 C5.69348976,0.715190561 6.77810415,0 7.97818847,0 L16.0218115,0 C17.2218959,0 18.3065102,0.715190561 18.7792466,1.8182421 L21,7 L17.75,7 Z"/>
</svg>
