<svg xmlns="http://www.w3.org/2000/svg" width="20" height="24" viewBox="0 0 20 24">
  <path fill="#F2F4F3" d="M5,0 L14,0 L14,8 L22,8 L22,21 C22,22.6568542 20.6568542,24 19,24 L5,24 C3.34314575,24 2,22.6568542 2,21 L2,3 C2,1.34314575 3.34314575,0 5,0 Z M7,13 C6.44771525,13 6,13.4477153 6,14 C6,14.5522847 6.44771525,15 7,15 L17,15 C17.5522847,15 18,14.5522847 18,14 C18,13.4477153 17.5522847,13 17,13 L7,13 Z M7,18 C6.44771525,18 6,18.4477153 6,19 C6,19.5522847 6.44771525,20 7,20 L17,20 C17.5522847,20 18,19.5522847 18,19 C18,18.4477153 17.5522847,18 17,18 L7,18 Z M16,0 L22,6 L16,6 L16,0 Z" transform="translate(-2)"/>
</svg>
