<svg xmlns="http://www.w3.org/2000/svg" width="24" height="24" viewBox="0 0 24 24">
  <path fill="#F2F4F3" d="M1.5,0 C2.32842712,0 3,0.671572875 3,1.5 L3,22.5 C3,23.3284271 2.32842712,24 1.5,24 C0.671572875,24 0,23.3284271 0,22.5 L0,1.5 C0,0.671572875 0.671572875,0 1.5,0 Z M17,2.66975169 L17,17.7618949 C15.3808141,17.2699459 13.7558977,16.6129811 12,16.3245685 L12,0.79704514 C13.5495322,1.43980225 15.1251948,2.34466683 17,2.66975169 Z M19,2.76924909 C19.9182058,2.69986721 20.9106685,2.46661223 22,1.99975586 C23.037,1.55575586 24,2.38066483 24,3.48766483 L24,15.4876648 C24,16.5896648 23.104,17.9676648 22,18.2016648 C20.9660825,18.4287131 19.9749245,18.406303 19,18.2474344 L19,2.76924909 Z M10,0.181231858 L10,16.1825443 C9.05109655,16.2107209 8.05655696,16.3844997 7,16.7736648 C5.896,17.0066648 5,16.5936648 5,15.4876648 L5,3.48766483 C5,2.38466483 5.968,1.01966483 7,0.563664834 C8.0722534,0.0897288299 9.05252862,0.0230764322 10,0.181231858 L10,0.181231858 Z"/>
</svg>
