<svg xmlns="http://www.w3.org/2000/svg" width="24" height="24" viewBox="0 0 24 24">
  <path fill="#F2F4F3" d="M7,0 L17,0 C18.6568542,0 20,1.34314575 20,3 L20,11 L12,15 L4,11 L4,3 C4,1.34314575 5.34314575,0 7,0 Z M9,4 C8.44771525,4 8,4.44771525 8,5 C8,5.55228475 8.44771525,6 9,6 L11,6 C11.5522847,6 12,5.55228475 12,5 C12,4.44771525 11.5522847,4 11,4 L9,4 Z M9,8 C8.44771525,8 8,8.44771525 8,9 C8,9.55228475 8.44771525,10 9,10 L15,10 C15.5522847,10 16,9.55228475 16,9 C16,8.44771525 15.5522847,8 15,8 L9,8 Z M0,11 L12,17 L24,11 L24,21 C24,22.6568542 22.6568542,24 21,24 L3,24 C1.34314575,24 0,22.6568542 0,21 L0,11 Z M2,8 L2,10 L0,10 L2,8 Z M22,8 L24,10 L22,10 L22,8 Z"/>
</svg>
