<svg xmlns="http://www.w3.org/2000/svg" width="24" height="23" viewBox="0 0 24 23">
  <path fill="#F2F4F3" d="M20,10.114 C20,11.218 19.104,12.114 18,12.114 C16.896,12.114 16,11.218 16,10.114 L16,10.072 C16,8.968 16.896,8.072 18,8.072 C19.104,8.072 20,8.968 20,10.072 L20,10.114 Z M14,10.114 C14,11.218 13.104,12.114 12,12.114 C10.896,12.114 10,11.218 10,10.114 L10,10.072 C10,8.968 10.896,8.072 12,8.072 C13.104,8.072 14,8.968 14,10.072 L14,10.114 Z M8,10.114 C8,11.218 7.104,12.114 6,12.114 C4.896,12.114 4,11.218 4,10.114 L4,10.072 C4,8.968 4.896,8.072 6,8.072 C7.104,8.072 8,8.968 8,10.072 L8,10.114 Z M21,1 L3,1 C1.343,1 0,2.343 0,4 L0,16.186 C0,17.843 1.343,19.186 3,19.186 L7.137,19.186 C8.278,19.186 9.32,19.833 9.826,20.855 L11.104,23.437 C11.201,23.634 11.36,23.793 11.557,23.89 C12.051,24.135 12.651,23.932 12.896,23.437 L14.174,20.855 C14.68,19.833 15.722,19.186 16.863,19.186 L21,19.186 C22.657,19.186 24,17.843 24,16.186 L24,4 C24,2.343 22.657,1 21,1 L21,1 Z" transform="translate(0 -1)"/>
</svg>
