<svg xmlns="http://www.w3.org/2000/svg" width="20" height="24" viewBox="0 0 20 24">
  <path fill="#F2F4F3" d="M13.3892312,23.4387842 C12.6142301,24.1871052 11.3857557,24.1871052 10.6107614,23.438777 C4.8702538,17.8958898 2,13.4162015 2,9.99971217 C2,4.47702363 6.4771525,0 12,0 C17.5228475,0 22,4.47702363 22,9.99971217 C22,13.416203 19.1297437,17.8958937 13.3892312,23.4387842 Z M12,14.9995683 C14.7614237,14.9995683 17,12.7610564 17,9.99971217 C17,7.2383679 14.7614237,4.99985608 12,4.99985608 C9.23857625,4.99985608 7,7.2383679 7,9.99971217 C7,12.7610564 9.23857625,14.9995683 12,14.9995683 Z" transform="translate(-2)"/>
</svg>
