<svg xmlns="http://www.w3.org/2000/svg" width="24" height="22" viewBox="0 0 24 22">
  <path fill="#F2F4F3" d="M19.5285617,12.2519302 C22.2029091,13.8521012 24,16.8261875 24,20.2307692 C24,21.7035286 22.8503115,22.9077637 21.399463,22.9949461 L21.2307692,23 L8.76923077,23 C7.23982685,23 6,21.7601732 6,20.2307692 C6,16.8261875 7.79709085,13.8521012 10.4714383,12.2519302 C11.7226251,13.2226218 13.2938856,13.8 15,13.8 C16.6347629,13.8 18.1457154,13.2699051 19.3703439,12.3722293 L19.5285617,12.2519302 Z M3.35406496,12.4386567 C4.1429675,13.0510171 5.1010612,13.454415 6.14615769,13.567524 C4.79666847,15.431382 4,17.7376775 4,20.2307692 C4,20.3212803 4.00252134,20.4112025 4.0074976,20.5004693 L2.07692308,20.5 C0.929870135,20.5 -8.2600593e-14,19.5701299 -8.2600593e-14,18.4230769 C-8.2600593e-14,15.8694343 1.34803598,13.6387154 3.35406496,12.4386567 Z M6.75,4 C7.16446049,4 7.56438011,4.06225683 7.94091731,4.17792894 C7.71892309,4.87916954 7.6,5.62569678 7.6,6.4 C7.6,8.0437947 8.13596844,9.56240726 9.04268298,10.7906154 C8.48405539,11.1557052 7.96141645,11.5731765 7.47953971,12.0343978 L7.2364306,12.0710739 L7.2364306,12.0710739 L7.1316364,12.0822546 L7.1316364,12.0822546 L7.00231361,12.0922664 L7.00231361,12.0922664 L6.87672286,12.0980557 L6.75,12.1 L6.47460764,12.0907843 L6.36832966,12.0822506 L6.36832966,12.0822506 L6.21562432,12.0650591 L5.98371198,12.027607 L5.87439562,12.0050981 L5.87439562,12.0050981 L5.71365059,11.9661916 L5.71365059,11.9661916 L5.54294533,11.9170765 L5.37141363,11.8593222 L5.37141363,11.8593222 L5.17018921,11.7803041 L5.17018921,11.7803041 L5.04361051,11.7240428 L5.04361051,11.7240428 C3.65998629,11.0807917 2.7,9.67750426 2.7,8.05 C2.7,5.81324676 4.51324676,4 6.75,4 Z M15,1 C17.9823376,1 20.4,3.41766235 20.4,6.4 C20.4,8.68162883 18.9849492,10.6327548 16.984578,11.4236478 L16.7190674,11.5203359 L16.7190674,11.5203359 L16.5060983,11.5871763 L16.5060983,11.5871763 L16.3162747,11.638422 L16.3162747,11.638422 L16.0570222,11.6965826 L16.0570222,11.6965826 L15.8683106,11.7305235 L15.8683106,11.7305235 L15.5537728,11.7719437 L15.5537728,11.7719437 L15.4529162,11.7812746 L15.4529162,11.7812746 L15.265996,11.7935622 L15.265996,11.7935622 L15.133163,11.7983882 L15,11.8 L14.756,11.794 L14.54699,11.7812692 L14.54699,11.7812692 L14.3784848,11.7646208 L14.3784848,11.7646208 L14.0880056,11.723311 L14.0880056,11.723311 L13.942972,11.6965913 L13.942972,11.6965913 L13.6836727,11.6384269 L13.6836727,11.6384269 L13.4943006,11.587292 L13.4943006,11.587292 L13.3870843,11.5550053 L13.3870843,11.5550053 L13.2278421,11.5024844 L12.9729622,11.4066506 L12.9729622,11.4066506 L12.7241347,11.2984076 L12.7241347,11.2984076 C10.8795223,10.440384 9.6,8.56961624 9.6,6.4 C9.6,3.41766235 12.0176624,1 15,1 Z" transform="translate(0 -1)"/>
</svg>
