<svg xmlns="http://www.w3.org/2000/svg" width="24" height="24" viewBox="0 0 24 24">
  <path fill="#F2F4F3" d="M18.6095499,6.99534763 L23,6.99534763 C23.5522847,6.99534763 24,7.44306288 24,7.99534763 C24,8.54763238 23.5522847,8.99534763 23,8.99534763 L1,8.99534763 C0.44771525,8.99534763 0,8.54763238 0,7.99534763 C0,7.44306288 0.44771525,6.99534763 1,6.99534763 L5.39045012,6.99534763 L9.1339746,0.500166975 C9.41011697,0.0218743518 10.0217074,-0.142000803 10.5,0.134141571 C10.9782926,0.410283946 11.1421678,1.02187435 10.8660254,1.50016698 L7.69985119,6.99534763 L16.3001488,6.99534763 L13.1339746,1.50016698 C12.8578322,1.02187435 13.0217074,0.410283946 13.5,0.134141571 C13.9782926,-0.142000803 14.589883,0.0218743518 14.8660254,0.500166975 L18.6095499,6.99534763 Z M0,10.9953476 L24,10.9953476 L20.6516131,21.8776052 C20.2642977,23.13638 19.1012906,23.9953476 17.784276,23.9953476 L6.21572396,23.9953476 C4.8987094,23.9953476 3.73570228,23.13638 3.34838694,21.8776052 L0,10.9953476 Z M15,13.9953476 C14.4477153,13.9953476 14,14.4430629 14,14.9953476 L14,19.9953476 C14,20.5476324 14.4477153,20.9953476 15,20.9953476 C15.5522847,20.9953476 16,20.5476324 16,19.9953476 L16,14.9953476 C16,14.4430629 15.5522847,13.9953476 15,13.9953476 Z M9,13.9953476 C8.44771525,13.9953476 8,14.4430629 8,14.9953476 L8,19.9953476 C8,20.5476324 8.44771525,20.9953476 9,20.9953476 C9.55228475,20.9953476 10,20.5476324 10,19.9953476 L10,14.9953476 C10,14.4430629 9.55228475,13.9953476 9,13.9953476 Z" transform="translate(0 .005)"/>
</svg>
