<svg xmlns="http://www.w3.org/2000/svg" width="20" height="24" viewBox="0 0 20 24">
  <path fill="#F2F4F3" d="M21.6360546,17.5 C21.8710193,17.774 22,18.124 22,18.485 C22,19.322 21.3221017,20 20.4862271,20 L3.51377293,20 C2.67789832,20 2,19.322 2,18.485 C2,18.124 2.12898065,17.774 2.36494526,17.5 L3.85572164,15.76 C4.27565865,15.27 4.50562416,14.646 4.50562416,14 L4.50562416,12.497 C4.50562416,8.357 7.86012098,5.002 11.9985002,5.001 L11.9985002,5 L12.0014998,5 L12.0014998,5.001 C16.139879,5.002 19.4943758,8.357 19.4943758,12.497 L19.4943758,14 C19.4943758,14.646 19.7253412,15.27 20.1442784,15.76 L21.6360546,17.5 Z M9.99880018,22 L13.9982003,22 L13.9982003,22.0003 C13.9982003,23.1047038 13.1029041,24 11.9985002,24 C10.8940964,24 9.99880018,23.1047038 9.99880018,22.0003 L9.99880018,22 Z M9.99880018,3 L9.99880018,1.99970004 C9.99880018,0.895296206 10.8940964,0 11.9985002,0 C13.1029041,0 13.9982003,0.895296206 13.9982003,1.99970004 L13.9982003,3 L9.99880018,3 Z" transform="translate(-2)"/>
</svg>
