<svg xmlns="http://www.w3.org/2000/svg" width="24" height="22" viewBox="0 0 24 22">
  <path fill="#F2F4F3" d="M19.99975,7 L3.74955313,7 L0,19 L0,4 C0,2.343 1.34298321,1 2.9999625,1 L6.39392008,1 C7.39690754,1 8.33389583,1.501 8.88988888,2.336 L9.999875,4 L16.9997875,4 C18.6557668,4 19.99975,5.343 19.99975,7 Z M17.1570855,19 C17.7150786,19 18.1670729,18.553 18.1670729,18 C18.1670729,17.447 17.7150786,17 17.1570855,17 L9.07318659,17 C8.51519356,17 8.06219922,17.447 8.06219922,18 C8.06219922,18.553 8.51519356,19 9.07318659,19 L17.1570855,19 Z M11.1041612,13 C10.5461682,13 10.0941738,13.447 10.0941738,14 C10.0941738,14.553 10.5461682,15 11.1041612,15 L13.1251359,15 C13.683129,15 14.1361233,14.553 14.1361233,14 C14.1361233,13.447 13.683129,13 13.1251359,13 L11.1041612,13 Z M5.24953438,9 L20.9690379,9 C21.8368584,9 22.6194839,9.36094061 23.1720149,9.93945293 C23.6852865,10.4768598 24,11.2020182 24,12 C24,12.216 23.9770003,12.431 23.9300009,12.642 L22.160023,20.642 C21.8560268,22.019 20.6230422,23 19.19906,23 L5.0322371,23 C3.35825802,23 2.000275,21.657 2.000275,20 C2.000275,19.716 2.04127448,19.433 2.12227347,19.159 L5.24953438,9 Z" transform="translate(0 -1)"/>
</svg>
