<svg xmlns="http://www.w3.org/2000/svg" width="18" height="24" viewBox="0 0 18 24">
  <path fill="#F2F4F3" d="M18,10 C19.6568542,10 21,11.3431458 21,13 L21,21 C21,22.6568542 19.6568542,24 18,24 L6,24 C4.34314575,24 3,22.6568542 3,21 L3,13 C3,11.3431458 4.34314575,10 6,10 L18,10 Z M12,14 C10.8954305,14 10,14.8954305 10,16 C10,16.6500376 10.310115,17.227644 10.7904685,17.5929426 L10.9255896,17.6872006 L10.2742781,19.3143047 C10.2506541,19.3733648 10.2385165,19.4363903 10.2385165,19.5 C10.2385165,19.7454599 10.4153916,19.9496084 10.6486408,19.9919443 L10.7385165,20 L13.2614835,20 C13.3250932,20 13.3881187,19.9878624 13.4471789,19.9642383 C13.6750826,19.8730768 13.79894,19.6330335 13.7516213,19.4007439 L13.7257219,19.3143047 L13.0744104,17.6872006 C13.6309375,17.3320648 14,16.709132 14,16 C14,14.8954305 13.1045695,14 12,14 Z M12,0 C15.0073527,0 17.5,2.26604296 17.5,5.13636364 C17.5,5.96479076 16.8284271,6.63636364 16,6.63636364 C15.2203039,6.63636364 14.5795513,6.04147555 14.5068666,5.28082365 L14.5,5.13636364 C14.5,3.99006795 13.4109252,3 12,3 C10.6478633,3 9.591315,3.90928116 9.50561676,4.99395068 L9.5,5.13636364 L9.5,8 L6.5,8 L6.5,5.13636364 C6.5,2.26604296 8.99264725,0 12,0 Z" transform="translate(-3)"/>
</svg>
