<svg xmlns="http://www.w3.org/2000/svg" width="24" height="24" viewBox="0 0 24 24">
  <path fill="#F2F4F3" d="M20,21 C20,22.6568542 18.6568542,24 17,24 L7,24 C5.34314575,24 4,22.6568542 4,21 L20,21 Z M21,0 C22.6568542,0 24,1.34314575 24,3 L24,17 C24,18.6568542 22.6568542,20 21,20 L3,20 C1.34314575,20 0,18.6568542 0,17 L0,3 C0,1.34314575 1.34314575,0 3,0 L21,0 Z M4,16 C3.44771525,16 3,16.4477153 3,17 C3,17.5522847 3.44771525,18 4,18 C4.55228475,18 5,17.5522847 5,17 C5,16.4477153 4.55228475,16 4,16 Z M20,16 L16,16 C15.4477153,16 15,16.4477153 15,17 C15,17.5128358 15.3860402,17.9355072 15.8833789,17.9932723 L16,18 L20,18 C20.5522847,18 21,17.5522847 21,17 C21,16.4477153 20.5522847,16 20,16 Z M19.5,3 L4.5,3 C3.72030388,3 3.07955132,3.59488808 3.00686658,4.35553999 L3,4.5 L3,12.5 C3,13.2796961 3.59488808,13.9204487 4.35553999,13.9931334 L4.5,14 L19.5,14 C20.2796961,14 20.9204487,13.4051119 20.9931334,12.64446 L21,12.5 L21,4.5 C21,3.67157288 20.3284271,3 19.5,3 Z"/>
</svg>
