<svg xmlns="http://www.w3.org/2000/svg" width="24" height="23" viewBox="0 0 24 23">
  <path fill="#F2F4F3" d="M5.00093946,6 C7.2096467,6.00050774 9,7.79117416 9,10 C9,10.5522847 9.44771525,11 10,11 C10.5522847,11 11,10.5522847 11,10 C11,7.70939501 9.7164141,5.71858757 7.82928717,4.70762257 C9.31478525,2.5167769 11.7050229,1 15,1 C21,1 24,6.02943725 24,11 L24,12 C24,13.6568542 22.6568542,15 21,15 L3,15 C1.34314575,15 0,13.6568542 0,12 L0,11 C0,8.23857625 2.23857625,6 5,6 L5.00093946,6 Z M5,24 C4.44771525,24 4,23.5522847 4,23 L4,18 C4,17.4477153 4.44771525,17 5,17 C5.55228475,17 6,17.4477153 6,18 L6,23 C6,23.5522847 5.55228475,24 5,24 Z M10,21 C9.44771525,21 9,20.5522847 9,20 L9,18 C9,17.4477153 9.44771525,17 10,17 C10.5522847,17 11,17.4477153 11,18 L11,20 C11,20.5522847 10.5522847,21 10,21 Z M20,21 C19.4477153,21 19,20.5522847 19,20 L19,18 C19,17.4477153 19.4477153,17 20,17 C20.5522847,17 21,17.4477153 21,18 L21,20 C21,20.5522847 20.5522847,21 20,21 Z M15,24 C14.4477153,24 14,23.5522847 14,23 L14,18 C14,17.4477153 14.4477153,17 15,17 C15.5522847,17 16,17.4477153 16,18 L16,23 C16,23.5522847 15.5522847,24 15,24 Z" transform="translate(0 -1)"/>
</svg>
