<svg xmlns="http://www.w3.org/2000/svg" width="24" height="24" viewBox="0 0 24 24">
  <path fill="#F2F4F3" d="M24,12.14 C24,13.167 23.167,14 22.139,14 L22.137,14 C21.357,14 20.678,14.494 20.397,15.222 C20.341,15.369 20.281,15.513 20.217,15.657 C19.898,16.371 20.027,17.203 20.581,17.757 L20.582,17.757 C21.309,18.485 21.309,19.662 20.582,20.389 L20.385,20.586 C19.658,21.313 18.48,21.313 17.753,20.586 L17.751,20.584 C17.198,20.031 16.366,19.901 15.651,20.219 C15.51,20.283 15.367,20.342 15.222,20.398 C14.494,20.678 14,21.358 14,22.138 L14,22.14 C14,23.167 13.167,24 12.139,24 L11.861,24 C10.833,24 10,23.167 10,22.14 L10,22.138 C10,21.358 9.506,20.678 8.779,20.398 C8.632,20.342 8.488,20.282 8.345,20.218 C7.63,19.899 6.798,20.029 6.245,20.582 L6.243,20.584 C5.516,21.311 4.338,21.311 3.611,20.584 L3.414,20.387 C2.688,19.661 2.688,18.483 3.414,17.755 L3.417,17.753 C3.971,17.2 4.1,16.368 3.781,15.653 C3.718,15.511 3.658,15.368 3.603,15.222 C3.322,14.494 2.643,14 1.863,14 L1.861,14 C0.833,14 0,13.167 0,12.14 L0,11.861 C0,10.833 0.833,10 1.861,10 L1.862,10 C2.643,10 3.322,9.506 3.603,8.779 C3.658,8.634 3.718,8.491 3.781,8.349 C4.1,7.634 3.97,6.802 3.417,6.249 L3.414,6.247 C2.688,5.52 2.688,4.342 3.414,3.616 L3.611,3.418 C4.338,2.692 5.516,2.692 6.243,3.418 L6.243,3.419 C6.797,3.973 7.629,4.103 8.344,3.784 C8.487,3.719 8.632,3.66 8.779,3.603 C9.506,3.323 10,2.643 10,1.863 L10,1.861 C10,0.833 10.833,0 11.861,0 L12.139,0 C13.167,0 14,0.833 14,1.861 L14,1.863 C14,2.643 14.494,3.323 15.222,3.603 C15.367,3.659 15.511,3.718 15.652,3.782 C16.367,4.101 17.199,3.971 17.752,3.417 L17.753,3.416 C18.48,2.69 19.658,2.69 20.385,3.416 L20.582,3.614 C21.309,4.34 21.309,5.518 20.582,6.244 C20.028,6.798 19.898,7.63 20.218,8.346 C20.281,8.488 20.341,8.632 20.397,8.779 C20.678,9.507 21.357,10 22.138,10 L22.139,10 C23.167,10 24,10.833 24,11.861 L24,12.14 Z M12,17.0004 C14.7614237,17.0004 17,14.7618237 17,12.0004 C17,9.23897625 14.7614237,7.0004 12,7.0004 C9.23857625,7.0004 7,9.23897625 7,12.0004 C7,14.7618237 9.23857625,17.0004 12,17.0004 Z"/>
</svg>
