<svg xmlns="http://www.w3.org/2000/svg" width="20" height="24" viewBox="0 0 20 24">
  <path fill="#F2F4F3" d="M7.06911692,12.298207 C8.42805328,13.3651614 10.1398894,14 12,14 C13.8601106,14 15.5719467,13.3651614 16.9306631,12.3003293 C19.8819946,13.9740608 21.8968827,17.1078199 21.9961582,20.7200952 L22,21 C22,22.6568542 20.6568542,24 19,24 L5,24 C3.34314575,24 2,22.6568542 2,21 L2.0038418,20.7200952 C2.10311729,17.1078199 4.11800539,13.9740608 7.06911692,12.298207 Z M12,0 C15.3137085,0 18,2.6862915 18,6 C18,9.3137085 15.3137085,12 12,12 C8.6862915,12 6,9.3137085 6,6 C6,2.6862915 8.6862915,0 12,0 Z" transform="translate(-2)"/>
</svg>
